<mxfile host="app.diagrams.net" agent="Mozilla/5.0 (Windows NT 10.0; Win64; x64) AppleWebKit/537.36 (KHTML, like Gecko) Chrome/129.0.0.0 Safari/537.36 Edg/129.0.0.0" version="24.7.17">
  <diagram id="C5RBs43oDa-KdzZeNtuy" name="Page-1">
    <mxGraphModel dx="786" dy="421" grid="1" gridSize="10" guides="1" tooltips="1" connect="1" arrows="1" fold="1" page="1" pageScale="1" pageWidth="827" pageHeight="1169" math="0" shadow="0">
      <root>
        <mxCell id="WIyWlLk6GJQsqaUBKTNV-0" />
        <mxCell id="WIyWlLk6GJQsqaUBKTNV-1" parent="WIyWlLk6GJQsqaUBKTNV-0" />
        <mxCell id="3Wm1kIrDkOU7qq5THUHN-8" value="" style="edgeStyle=orthogonalEdgeStyle;rounded=0;orthogonalLoop=1;jettySize=auto;html=1;" edge="1" parent="WIyWlLk6GJQsqaUBKTNV-1" source="3Wm1kIrDkOU7qq5THUHN-0" target="3Wm1kIrDkOU7qq5THUHN-1">
          <mxGeometry relative="1" as="geometry" />
        </mxCell>
        <mxCell id="3Wm1kIrDkOU7qq5THUHN-0" value="Start" style="ellipse;whiteSpace=wrap;html=1;" vertex="1" parent="WIyWlLk6GJQsqaUBKTNV-1">
          <mxGeometry x="340" y="10" width="90" height="30" as="geometry" />
        </mxCell>
        <mxCell id="3Wm1kIrDkOU7qq5THUHN-9" value="" style="edgeStyle=orthogonalEdgeStyle;rounded=0;orthogonalLoop=1;jettySize=auto;html=1;" edge="1" parent="WIyWlLk6GJQsqaUBKTNV-1" source="3Wm1kIrDkOU7qq5THUHN-1" target="3Wm1kIrDkOU7qq5THUHN-2">
          <mxGeometry relative="1" as="geometry" />
        </mxCell>
        <mxCell id="3Wm1kIrDkOU7qq5THUHN-1" value="Read Dataset" style="shape=parallelogram;perimeter=parallelogramPerimeter;whiteSpace=wrap;html=1;fixedSize=1;" vertex="1" parent="WIyWlLk6GJQsqaUBKTNV-1">
          <mxGeometry x="317.5" y="60" width="135" height="40" as="geometry" />
        </mxCell>
        <mxCell id="3Wm1kIrDkOU7qq5THUHN-10" value="" style="edgeStyle=orthogonalEdgeStyle;rounded=0;orthogonalLoop=1;jettySize=auto;html=1;" edge="1" parent="WIyWlLk6GJQsqaUBKTNV-1" source="3Wm1kIrDkOU7qq5THUHN-2" target="3Wm1kIrDkOU7qq5THUHN-3">
          <mxGeometry relative="1" as="geometry" />
        </mxCell>
        <mxCell id="3Wm1kIrDkOU7qq5THUHN-2" value="Image Processing" style="rounded=0;whiteSpace=wrap;html=1;" vertex="1" parent="WIyWlLk6GJQsqaUBKTNV-1">
          <mxGeometry x="322.5" y="120" width="125" height="40" as="geometry" />
        </mxCell>
        <mxCell id="3Wm1kIrDkOU7qq5THUHN-11" value="" style="edgeStyle=orthogonalEdgeStyle;rounded=0;orthogonalLoop=1;jettySize=auto;html=1;" edge="1" parent="WIyWlLk6GJQsqaUBKTNV-1" source="3Wm1kIrDkOU7qq5THUHN-3" target="3Wm1kIrDkOU7qq5THUHN-4">
          <mxGeometry relative="1" as="geometry" />
        </mxCell>
        <mxCell id="3Wm1kIrDkOU7qq5THUHN-3" value="Dataset Splitting" style="rounded=0;whiteSpace=wrap;html=1;" vertex="1" parent="WIyWlLk6GJQsqaUBKTNV-1">
          <mxGeometry x="323.75" y="180" width="122.5" height="40" as="geometry" />
        </mxCell>
        <mxCell id="3Wm1kIrDkOU7qq5THUHN-12" value="" style="edgeStyle=orthogonalEdgeStyle;rounded=0;orthogonalLoop=1;jettySize=auto;html=1;" edge="1" parent="WIyWlLk6GJQsqaUBKTNV-1" source="3Wm1kIrDkOU7qq5THUHN-4" target="3Wm1kIrDkOU7qq5THUHN-5">
          <mxGeometry relative="1" as="geometry" />
        </mxCell>
        <mxCell id="3Wm1kIrDkOU7qq5THUHN-4" value="CNN Model Building" style="rounded=0;whiteSpace=wrap;html=1;" vertex="1" parent="WIyWlLk6GJQsqaUBKTNV-1">
          <mxGeometry x="321.25" y="240" width="127.5" height="40" as="geometry" />
        </mxCell>
        <mxCell id="3Wm1kIrDkOU7qq5THUHN-13" value="" style="edgeStyle=orthogonalEdgeStyle;rounded=0;orthogonalLoop=1;jettySize=auto;html=1;" edge="1" parent="WIyWlLk6GJQsqaUBKTNV-1" source="3Wm1kIrDkOU7qq5THUHN-5" target="3Wm1kIrDkOU7qq5THUHN-6">
          <mxGeometry relative="1" as="geometry" />
        </mxCell>
        <mxCell id="3Wm1kIrDkOU7qq5THUHN-5" value="Performance Evaluation" style="rounded=0;whiteSpace=wrap;html=1;" vertex="1" parent="WIyWlLk6GJQsqaUBKTNV-1">
          <mxGeometry x="320" y="300" width="130" height="40" as="geometry" />
        </mxCell>
        <mxCell id="3Wm1kIrDkOU7qq5THUHN-14" value="" style="edgeStyle=orthogonalEdgeStyle;rounded=0;orthogonalLoop=1;jettySize=auto;html=1;" edge="1" parent="WIyWlLk6GJQsqaUBKTNV-1" source="3Wm1kIrDkOU7qq5THUHN-6" target="3Wm1kIrDkOU7qq5THUHN-7">
          <mxGeometry relative="1" as="geometry" />
        </mxCell>
        <mxCell id="3Wm1kIrDkOU7qq5THUHN-6" value="Classification Output: Pneumonia/Normal" style="shape=parallelogram;perimeter=parallelogramPerimeter;whiteSpace=wrap;html=1;fixedSize=1;" vertex="1" parent="WIyWlLk6GJQsqaUBKTNV-1">
          <mxGeometry x="310" y="360" width="150" height="60" as="geometry" />
        </mxCell>
        <mxCell id="3Wm1kIrDkOU7qq5THUHN-7" value="End" style="ellipse;whiteSpace=wrap;html=1;" vertex="1" parent="WIyWlLk6GJQsqaUBKTNV-1">
          <mxGeometry x="342.5" y="440" width="85" height="30" as="geometry" />
        </mxCell>
      </root>
    </mxGraphModel>
  </diagram>
</mxfile>
